# xmcd
#
# Track frame offsets:
#	150
#	54890
#	163855
#	186593
#	221275
#	258502
#
# Disc length: 3729 seconds
#
# Revision: 0
# Processed by: cddbd v1.5.2PL0 Copyright (c) Steve Scherf et al.
# Submitted via: audiograbber 1.83.01
#
DISCID=520e8f06
DTITLE=Jessie Mae Hemphill and Friends - Dare You To Do It Again/Songs For Bebe
DYEAR=2004
DGENRE=Blues
TTITLE0=God Is Good To Me
TTITLE1=Treat Me Right
TTITLE2=Runaway Soul
TTITLE3=I'm Going Home
TTITLE4=Swing Low
TTITLE5=Porch Logic Remix
EXTD=
EXTT0=
EXTT1=
EXTT2=
EXTT3=
EXTT4=
EXTT5=
PLAYORDER=
